PathFileType  4	(X/Y/Z) C:\Users\antoi\Documents\MyRepositories\mobilecap\ResultsAnalysis
DataRate	CameraRate	NumFrames	NumMarkers	Units	OrigDataRate	OrigDataStartFrame	OrigNumFrames
100.0	100.0	6	51	mm	100.0	33	261
Frame#	Time	r_knee			r_shank_antsup			r_ankle			r_calc			r_5meta			r_toe			L_knee			L_shank_antsup			L_ankle			L_calc			L_5meta			L_toe			r_sh2			r_sh3			r_sh4			L_sh2			L_sh3			r_thigh1			r_thigh2			r_thigh3			r_thigh4			r_thigh5			L_thigh1			L_thigh2			L_thigh3			L_thigh4			r.ASIS			r.PSIS			L.ASIS			L.PSIS			C7			R_Shoulder			L_Shoulder			R_Sternum			L_Sternum			R_humerus			R_elbow_med			R_elbow_lat			R_forearm			R_wrist_radius			R_wrist_ulna			L_humerus			L_elbow_med			L_elbow_lat			L_forearm			L_wrist_radius			L_wrist_ulna			R_HJC			L_HJC			R_HJC_reg			L_HJC_reg			
		X1	Y1	Z1	X2	Y2	Z2	X3	Y3	Z3	X4	Y4	Z4	X5	Y5	Z5	X6	Y6	Z6	X7	Y7	Z7	X8	Y8	Z8	X9	Y9	Z9	X10	Y10	Z10	X11	Y11	Z11	X12	Y12	Z12	X13	Y13	Z13	X14	Y14	Z14	X15	Y15	Z15	X16	Y16	Z16	X17	Y17	Z17	X18	Y18	Z18	X19	Y19	Z19	X20	Y20	Z20	X21	Y21	Z21	X22	Y22	Z22	X23	Y23	Z23	X24	Y24	Z24	X25	Y25	Z25	X26	Y26	Z26	X27	Y27	Z27	X28	Y28	Z28	X29	Y29	Z29	X30	Y30	Z30	X31	Y31	Z31	X32	Y32	Z32	X33	Y33	Z33	X34	Y34	Z34	X35	Y35	Z35	X36	Y36	Z36	X37	Y37	Z37	X38	Y38	Z38	X39	Y39	Z39	X40	Y40	Z40	X41	Y41	Z41	X42	Y42	Z42	X43	Y43	Z43	X44	Y44	Z44	X45	Y45	Z45	X46	Y46	Z46	X47	Y47	Z47	X48	Y48	Z48	X49	Y49	Z49	X50	Y50	Z50	X51	Y51	Z51	

33	0.32000000	-1162.02577	853.57811	-421.02637	-1135.00830	756.94957	-435.29843	-1230.79900	428.62940	-470.29810	-1313.43394	381.83612	-516.85392	-1117.95974	356.22640	-427.32976	-1060.12219	384.62669	-491.04484	-1167.14245	849.40665	-727.37924	-1172.68539	757.30936	-748.46280	-1252.47247	430.61526	-684.43839	-1331.19317	382.32265	-626.49744	-1142.30870	359.52965	-720.27483	-1081.84147	386.92149	-658.09055	-1159.31171	648.44427	-413.35015	-1195.51086	778.74577	-391.31394	-1237.26930	669.73864	-389.45568	-1261.19370	775.27028	-739.61369	-1271.03816	653.72383	-731.20063	-1080.03302	1174.89168	-391.00944	-1076.95368	1065.52737	-405.08141	-1129.91975	1036.36566	-377.50213	-1192.34026	1165.58061	-384.33082	-1181.24738	1052.83696	-391.72571	-1082.81225	1137.97576	-745.97910	-1080.02477	998.14560	-731.00896	-1191.89206	1133.76262	-761.34615	-1194.03522	996.16360	-748.48544	-1070.07572	1393.17744	-434.74760	-1254.36121	1400.14748	-505.01549	-1070.38259	1386.97789	-688.50639	-1256.45822	1401.04416	-616.22264	-1150.97066	1952.69906	-560.54286	-1099.43729	1884.77000	-395.03887	-1130.72991	1887.06797	-730.43329	-1045.61418	1842.38598	-535.02636	-1052.01903	1841.12450	-592.55418	-1110.76201	1725.26393	-327.39841	-1240.24056	1543.32498	-350.83996	-1201.98385	1557.47283	-278.14840	-1160.93899	1387.52317	-256.96071	-1128.11269	1297.05730	-264.53827	-1169.44997	1302.85408	-244.29592	-1177.80904	1767.83505	-804.28135	-1263.67668	1544.19696	-741.30978	-1256.64917	1557.92973	-821.81288	-1223.04482	1491.78547	-849.38370	-1187.63105	1316.67268	-868.65464	-1228.92639	1312.83125	-872.26449	-1148.18405	1274.43266	-454.60643	-1153.60685	1276.69723	-661.48275	-1125.92633	1304.24131	-470.18669	-1129.08623	1305.59430	-637.68129	
34	0.33000000	-1162.19286	853.53988	-420.99015	-1135.23785	756.93142	-435.27407	-1230.89037	428.47536	-470.30335	-1313.67181	381.75555	-516.78820	-1117.98098	356.22619	-427.32036	-1060.18060	384.65007	-491.03020	-1166.34268	848.95450	-727.07254	-1171.71679	756.92704	-748.57301	-1252.60277	430.45078	-684.35501	-1331.30159	382.21221	-626.45929	-1142.38047	359.56236	-720.29159	-1081.99190	387.12847	-658.07218	-1159.54192	648.41300	-413.33458	-1194.83451	779.18883	-391.46987	-1237.66011	669.65470	-389.47670	-1260.27610	775.01733	-739.82052	-1270.38432	653.42464	-731.34166	-1080.13897	1174.45136	-391.39168	-1077.01774	1065.47632	-405.15134	-1130.15184	1036.29547	-377.64544	-1192.77139	1165.83307	-384.57170	-1181.43617	1052.77790	-391.95130	-1082.33053	1137.44511	-745.43185	-1079.25743	997.92197	-730.84161	-1191.48630	1133.02804	-761.52587	-1193.14389	995.84340	-749.00551	-1069.80893	1392.99303	-434.87406	-1253.40226	1399.76279	-506.68569	-1069.79229	1386.51308	-688.59454	-1255.56201	1400.95076	-617.33318	-1148.12896	1952.47571	-560.87585	-1096.10977	1883.82541	-395.65852	-1128.00676	1886.61742	-730.73364	-1043.01395	1841.97645	-535.23379	-1049.53524	1840.55132	-592.83799	-1109.54831	1725.16628	-327.18425	-1241.49714	1545.85508	-349.98049	-1203.62531	1559.39950	-276.97536	-1167.08147	1388.53325	-254.87965	-1136.72857	1297.29729	-261.29350	-1178.02188	1304.25769	-241.54798	-1177.09971	1768.28745	-804.71260	-1264.46072	1546.02054	-741.98879	-1259.37493	1559.91155	-822.60158	-1227.88317	1493.20796	-851.29967	-1197.80006	1317.26530	-872.36329	-1239.36644	1314.59106	-875.04376	-1147.98903	1274.21729	-455.21474	-1152.63673	1276.33680	-662.11293	-1125.14563	1303.56181	-470.50136	-1128.41383	1305.35995	-637.97000	
35	0.34000000	-1162.35265	853.51532	-420.95295	-1135.47428	756.81640	-435.32207	-1230.95222	428.41612	-470.24075	-1313.71710	381.73104	-516.83086	-1118.01676	356.17957	-427.29641	-1060.30644	384.64852	-491.00701	-1165.47543	848.66858	-727.16670	-1170.86701	756.53053	-748.67612	-1252.78470	430.22571	-684.28447	-1331.43945	382.11385	-626.50540	-1142.43606	359.58635	-720.32043	-1082.14010	387.38191	-658.02745	-1159.85608	648.33364	-413.35075	-1194.93988	779.13520	-391.45143	-1238.02722	669.69565	-389.42862	-1259.45389	774.82466	-740.01027	-1269.84562	653.17389	-731.44593	-1080.05832	1174.27250	-391.58959	-1077.19676	1065.26030	-405.18559	-1130.36770	1036.14613	-377.83503	-1192.70344	1166.43141	-384.87085	-1181.55679	1052.74158	-392.25774	-1081.59842	1137.07279	-745.33577	-1078.45084	997.62617	-730.59426	-1190.95521	1132.45735	-761.75034	-1192.31807	995.63297	-749.72814	-1069.44547	1392.77792	-435.03250	-1252.90880	1399.97521	-506.92209	-1069.09507	1386.02257	-688.54814	-1254.83569	1400.99739	-617.84317	-1145.08542	1952.16623	-561.24964	-1092.76497	1883.34719	-396.02753	-1125.10491	1886.12106	-731.19374	-1040.29225	1841.50306	-535.57007	-1046.82621	1839.85772	-593.21830	-1108.38227	1724.99348	-327.00648	-1243.30721	1548.61039	-349.13627	-1205.67581	1561.51856	-275.88831	-1173.89537	1389.83016	-252.75284	-1146.16994	1297.81327	-258.22233	-1187.37149	1305.96560	-238.87190	-1176.36814	1768.78210	-805.08764	-1266.31423	1548.21982	-743.06081	-1262.51245	1562.19556	-823.80191	-1233.30851	1494.87545	-853.17778	-1208.91178	1318.07088	-875.42978	-1250.53940	1316.82036	-877.64911	-1147.90362	1274.19222	-455.26813	-1152.22120	1276.08498	-662.17551	-1125.04683	1303.57549	-470.60652	-1127.95536	1305.11949	-637.95316	
36	0.35000000	-1162.54274	853.44466	-421.04242	-1135.66824	756.67251	-435.42395	-1231.01688	428.42009	-470.16243	-1313.61000	381.72818	-516.94899	-1118.04974	356.14330	-427.27086	-1060.40332	384.66049	-491.01971	-1164.55477	848.54412	-727.69421	-1170.16965	756.11953	-748.57020	-1252.99061	429.99646	-684.27165	-1331.55501	382.03862	-626.65172	-1142.49235	359.56902	-720.32781	-1082.24161	387.57786	-657.96189	-1160.10928	648.21539	-413.42649	-1195.90015	778.70880	-391.31436	-1238.21573	669.76592	-389.37759	-1258.71127	774.67992	-740.24301	-1269.24233	653.12054	-731.73627	-1079.94262	1174.21415	-391.50546	-1077.36473	1064.97809	-405.26516	-1130.49452	1036.03108	-377.98213	-1192.37149	1166.96571	-385.08778	-1181.59073	1052.74065	-392.50899	-1080.50803	1137.04030	-745.90206	-1077.66431	997.30563	-730.40677	-1190.06977	1132.16077	-762.14052	-1191.56865	995.36479	-750.13437	-1069.01185	1392.54788	-435.21186	-1252.49699	1400.43899	-506.72976	-1068.33085	1385.60932	-688.57357	-1254.21370	1401.03520	-618.13854	-1141.80677	1951.75333	-561.58409	-1089.38673	1883.10096	-396.36523	-1122.03077	1885.62741	-731.80021	-1037.26262	1840.86635	-535.98743	-1043.84246	1839.07866	-593.57062	-1107.29292	1724.89903	-326.74470	-1245.93993	1551.51843	-348.19611	-1208.05795	1563.81071	-274.97327	-1181.39141	1391.45287	-250.52925	-1156.53620	1298.66962	-255.29399	-1197.49655	1308.18663	-236.07875	-1175.48920	1769.36300	-805.51505	-1269.26736	1550.59364	-744.17796	-1266.03179	1564.82968	-824.93270	-1239.28089	1496.84254	-854.84025	-1220.86877	1319.43639	-878.39115	-1262.47709	1319.70637	-880.38520	-1147.77868	1274.23789	-455.19884	-1151.96140	1275.90734	-662.11044	-1125.10505	1303.95913	-470.52679	-1127.68328	1304.85473	-637.78554	
37	0.36000000	-1162.74335	853.31757	-421.24369	-1135.79890	756.57767	-435.54024	-1231.09031	428.36016	-470.12271	-1313.57149	381.66244	-516.98584	-1118.06518	356.15013	-427.26112	-1060.41069	384.68981	-491.04825	-1163.83428	848.29715	-727.87221	-1169.51956	755.74729	-748.38088	-1253.20164	429.82764	-684.30510	-1331.64400	381.94526	-626.76277	-1142.57606	359.52934	-720.34106	-1082.34953	387.72503	-657.98224	-1160.25459	648.11719	-413.53297	-1196.73404	778.46153	-391.31199	-1238.27599	669.71249	-389.44304	-1257.91470	774.58402	-740.58574	-1268.60391	653.17909	-732.10288	-1079.81518	1174.11645	-391.51684	-1077.33563	1064.78942	-405.34920	-1130.59993	1035.90241	-378.14229	-1192.13403	1167.12129	-385.39572	-1181.56070	1052.72720	-392.66538	-1079.73657	1136.93752	-746.06942	-1076.92933	997.02085	-730.26125	-1189.12632	1131.93891	-762.63196	-1190.81958	995.06739	-750.29631	-1068.52122	1392.35178	-435.35164	-1251.77508	1400.76791	-507.01410	-1067.56157	1385.26115	-688.75534	-1253.53257	1401.21985	-618.35156	-1138.29747	1951.30510	-561.92259	-1085.78752	1882.74118	-396.65699	-1118.75522	1885.13282	-732.38523	-1034.03197	1840.17139	-536.40151	-1040.69528	1838.25617	-594.03715	-1106.36422	1724.86577	-326.57638	-1249.04145	1554.59626	-347.32391	-1210.77864	1566.30656	-274.21393	-1189.54957	1393.46460	-248.37100	-1167.70423	1299.98415	-252.29716	-1208.31555	1311.01701	-233.20481	-1174.41440	1770.07943	-806.14558	-1272.89704	1553.15674	-745.32961	-1269.83402	1567.81450	-825.68734	-1245.64246	1499.23468	-856.55592	-1233.65572	1321.49510	-881.39387	-1275.16669	1323.26861	-883.08652	-1147.53542	1274.26740	-455.31029	-1151.56948	1275.80407	-662.22600	-1124.72655	1303.99012	-470.53377	-1127.36512	1304.66891	-637.82522	
38	0.37000000	-1162.87035	853.20099	-421.37432	-1135.88185	756.48808	-435.63109	-1231.17637	428.22306	-470.11103	-1313.56641	381.57526	-516.94581	-1118.07826	356.18994	-427.27596	-1060.39714	384.71633	-491.05141	-1163.28620	847.86193	-727.56095	-1168.85137	755.46907	-748.36275	-1253.39245	429.72018	-684.35114	-1331.69927	381.84510	-626.80178	-1142.68071	359.50148	-720.36139	-1082.52756	387.96277	-658.21507	-1160.38076	648.02797	-413.58783	-1196.96154	778.35986	-391.39328	-1238.32345	669.55395	-389.60387	-1257.07131	774.50310	-740.93183	-1268.11828	653.13501	-732.28157	-1079.61299	1173.98525	-391.68647	-1077.18140	1064.68040	-405.37820	-1130.68148	1035.64079	-378.34574	-1191.88344	1167.08351	-385.62248	-1181.49827	1052.65681	-392.88416	-1079.25907	1136.66153	-745.75844	-1076.22530	996.79157	-730.17945	-1188.36411	1131.63894	-762.96098	-1190.04794	994.79169	-750.50930	-1067.92179	1392.13458	-435.43978	-1250.99934	1400.98905	-507.42483	-1066.77177	1384.87234	-688.89139	-1252.75884	1401.55972	-618.56716	-1134.57916	1950.91277	-562.36957	-1081.93033	1882.33871	-396.76700	-1115.26097	1884.64509	-732.93659	-1030.56967	1839.45649	-536.70080	-1037.44470	1837.42667	-594.62084	-1105.56443	1724.81415	-326.67621	-1252.19706	1557.90270	-346.96656	-1213.85882	1569.05734	-273.78591	-1198.31400	1395.94314	-246.41815	-1179.53570	1301.83817	-249.31654	-1219.79980	1314.37113	-230.51721	-1173.15303	1770.92516	-806.93152	-1276.78127	1556.20598	-746.60959	-1273.80459	1571.20998	-826.34972	-1252.29387	1502.11409	-858.24087	-1247.21635	1324.15740	-884.05405	-1288.49979	1327.55223	-885.54488	-1147.27844	1274.26123	-455.46142	-1151.12826	1275.72343	-662.38116	-1124.19072	1303.68976	-470.71420	-1126.83492	1304.54952	-638.04131	
